<svg width="146" height="108" viewBox="0 0 146 108" fill="none" xmlns="http://www.w3.org/2000/svg">
<rect width="146" height="108" fill="white"/>
<path d="M36.672 67.939C36.1387 67.747 35.5627 67.5443 34.944 67.331C34.3467 67.0963 33.8347 66.8723 33.408 66.659C32.9813 66.4457 32.768 66.2963 32.768 66.211C32.768 66.1257 32.8427 65.763 32.992 65.123C33.1627 64.4617 33.376 63.6297 33.632 62.627C33.9093 61.603 34.1973 60.4937 34.496 59.299C34.816 58.1043 35.136 56.9203 35.456 55.747C35.776 54.5523 36.0747 53.4643 36.352 52.483C36.6293 51.4803 36.8533 50.6803 37.024 50.083H35.36L33.92 47.939L34.112 47.427H40.704L42.56 50.115C42.816 51.1603 43.0827 52.3443 43.36 53.667C43.6373 54.9683 43.9147 56.3017 44.192 57.667C44.4693 59.011 44.7253 60.259 44.96 61.411C45.1947 62.563 45.3867 63.523 45.536 64.291C45.6853 65.059 45.7707 65.4963 45.792 65.603C45.8347 65.8803 45.952 66.0937 46.144 66.243C46.336 66.3923 46.6773 66.595 47.168 66.851L46.784 67.875C46.144 67.6617 45.504 67.4163 44.864 67.139C44.2453 66.8617 43.7333 66.595 43.328 66.339C42.9227 66.083 42.7093 65.9017 42.688 65.795C42.624 65.1123 42.5493 64.419 42.464 63.715C42.3787 62.9897 42.2827 62.275 42.176 61.571C41.984 61.5497 41.792 61.539 41.6 61.539C40.832 61.539 40.032 61.6243 39.2 61.795C38.368 61.9657 37.6107 62.275 36.928 62.723C36.7787 63.3203 36.6187 63.9283 36.448 64.547C36.2987 65.1657 36.1493 65.7843 36 66.403L37.056 66.915L36.672 67.939ZM39.392 58.947C40.2453 58.947 41.0773 59.1817 41.888 59.651C41.632 57.9443 41.344 56.291 41.024 54.691C40.7253 53.0697 40.4587 51.6297 40.224 50.371C39.9253 51.459 39.5733 52.739 39.168 54.211C38.784 55.683 38.3573 57.315 37.888 59.107C38.4 59.0003 38.9013 58.947 39.392 58.947ZM55.518 67.587C54.814 67.587 54.1527 67.491 53.534 67.299C52.9367 67.107 52.414 66.883 51.966 66.627V69.123C51.966 69.891 51.934 70.563 51.87 71.139C51.806 71.7363 51.774 72.1843 51.774 72.483C51.774 72.6963 51.8487 72.8563 51.998 72.963C52.1687 73.091 52.574 73.3257 53.214 73.667L52.83 74.531C51.4647 74.019 50.4087 73.5497 49.662 73.123C48.9367 72.7177 48.574 72.3443 48.574 72.003C48.574 71.7043 48.606 71.235 48.67 70.595C48.7553 69.9763 48.798 69.3683 48.798 68.771V58.083C48.798 57.6777 48.8087 57.1443 48.83 56.483C48.8727 55.8217 48.9473 55.2563 49.054 54.787H47.87L46.206 52.579L46.43 52.067H49.438C49.5233 52.067 49.7047 52.2163 49.982 52.515C50.2593 52.7923 50.5473 53.1123 50.846 53.475C51.166 52.9843 51.6247 52.5897 52.222 52.291C52.8407 51.9923 53.502 51.843 54.206 51.843H54.814C55.2833 51.843 55.7953 52.035 56.35 52.419C56.9047 52.7817 57.4273 53.2403 57.918 53.795C58.4087 54.3283 58.814 54.8617 59.134 55.395C59.454 55.9283 59.614 56.3657 59.614 56.707C59.614 57.3043 59.6033 58.147 59.582 59.235C59.5607 60.3017 59.55 61.571 59.55 63.043C59.55 64.4297 59.1873 65.539 58.462 66.371C57.7367 67.1817 56.7553 67.587 55.518 67.587ZM55.582 54.819C54.5153 54.819 53.662 54.979 53.022 55.299C52.382 55.5977 52.03 56.2163 51.966 57.155C51.966 57.3897 51.966 57.5923 51.966 57.763V64.803C52.35 64.8883 52.7553 64.931 53.182 64.931C54.334 64.931 55.1553 64.6643 55.646 64.131C56.1367 63.5977 56.382 62.851 56.382 61.891C56.382 61.2083 56.3927 60.4937 56.414 59.747C56.4353 59.0003 56.446 58.2963 56.446 57.635C56.4673 56.9737 56.478 56.4297 56.478 56.003C56.478 55.7043 56.4353 55.4377 56.35 55.203C56.2647 54.947 56.0087 54.819 55.582 54.819ZM68.7158 67.651C68.2038 67.651 67.5744 67.523 66.8278 67.267C66.0811 66.9897 65.3344 66.6377 64.5878 66.211C63.8624 65.763 63.2544 65.283 62.7638 64.771C62.2731 64.2377 62.0278 63.715 62.0278 63.203C62.0278 62.691 62.0598 61.8057 62.1238 60.547C62.2091 59.2883 62.2518 57.7843 62.2518 56.035C62.2518 53.2617 63.7664 51.875 66.7958 51.875C67.2651 51.875 67.8091 52.0243 68.4278 52.323C69.0464 52.6003 69.6438 52.9737 70.2198 53.443C70.7958 53.891 71.2758 54.3603 71.6598 54.851C72.0438 55.3417 72.2358 55.8003 72.2358 56.227V58.851C72.2358 60.579 71.2758 61.443 69.3558 61.443C68.7584 61.443 68.0758 61.411 67.3078 61.347C66.5398 61.2617 65.8571 61.1657 65.2598 61.059C65.2384 61.763 65.2171 62.403 65.1958 62.979C65.1958 63.5337 65.1958 63.8537 65.1958 63.939C65.1958 64.2803 65.2811 64.5257 65.4518 64.675C65.6224 64.8243 65.9318 64.899 66.3798 64.899C67.0411 64.899 67.7558 64.803 68.5238 64.611C69.3131 64.3977 70.0171 64.0883 70.6358 63.683H71.1158L72.8438 66.307C72.4384 66.691 71.8304 67.011 71.0198 67.267C70.2304 67.523 69.4624 67.651 68.7158 67.651ZM65.3558 57.059C65.3558 57.2297 65.3451 57.4857 65.3238 57.827C65.3238 58.1683 65.3238 58.5523 65.3238 58.979C65.9424 59.043 66.6571 59.075 67.4678 59.075C68.0864 59.075 68.5131 58.9257 68.7478 58.627C69.0038 58.307 69.1318 57.827 69.1318 57.187V55.459C69.1318 55.2243 69.0678 55.0217 68.9398 54.851C68.8118 54.6803 68.5344 54.595 68.1078 54.595C67.2544 54.595 66.5824 54.7763 66.0918 55.139C65.6011 55.4803 65.3558 56.1203 65.3558 57.059ZM77.9175 68.067C76.5522 67.5763 75.5495 67.139 74.9095 66.755C74.2908 66.3497 73.9815 66.0297 73.9815 65.795C73.9815 65.603 74.1842 65.1763 74.5895 64.515C74.9948 63.8537 75.5175 63.0857 76.1575 62.211C76.8188 61.315 77.5228 60.4297 78.2695 59.555C77.2242 58.8297 76.4455 58.1257 75.9335 57.443C75.4215 56.739 75.1655 56.0243 75.1655 55.299C75.1655 55.1497 75.1868 54.979 75.2295 54.787H74.6855L73.2135 52.579L73.4375 52.067H77.3095L78.8135 54.371V54.787C78.2802 55.0857 78.0135 55.6083 78.0135 56.355C78.0135 57.2083 78.3655 57.9657 79.0695 58.627C79.7522 57.859 80.3708 57.1657 80.9255 56.547C81.4802 55.9283 82.0455 55.3417 82.6215 54.787H81.8535L80.2855 52.579L80.5095 52.067H84.1575L86.0135 54.659C85.4162 55.4483 84.7762 56.3123 84.0935 57.251C83.4322 58.1683 82.5682 59.2137 81.5015 60.387C82.6108 61.219 83.4962 62.083 84.1575 62.979C84.8188 63.8537 85.1495 64.867 85.1495 66.019C85.1495 66.1043 85.1495 66.2003 85.1495 66.307C85.1495 66.4137 85.1388 66.531 85.1175 66.659L86.3015 67.235L85.9495 68.163C84.5842 67.651 83.5602 67.2563 82.8775 66.979C82.2162 66.7017 81.8855 66.4883 81.8855 66.339V65.667C81.8855 64.8777 81.8002 64.099 81.6295 63.331C81.4588 62.563 81.1495 61.891 80.7015 61.315C80.0828 62.0403 79.5068 62.7657 78.9735 63.491C78.4402 64.195 78.0028 64.8137 77.6615 65.347C77.3415 65.859 77.1815 66.1897 77.1815 66.339C77.1815 66.4883 77.2455 66.6057 77.3735 66.691C77.5228 66.7763 77.8322 66.9257 78.3015 67.139L77.9175 68.067ZM90.1413 62.723C90.0559 62.723 89.8426 62.6057 89.5013 62.371C89.1813 62.115 88.8293 61.8163 88.4453 61.475C88.0613 61.1337 87.7199 60.803 87.4213 60.483C87.1439 60.1417 87.0053 59.8857 87.0053 59.715C87.0053 59.5657 87.1546 59.1497 87.4533 58.467C87.7519 57.7843 88.1466 56.9523 88.6373 55.971C89.1279 54.9683 89.6506 53.9337 90.2053 52.867C90.7813 51.779 91.3359 50.755 91.8693 49.795C92.4239 48.835 92.9039 48.0457 93.3093 47.427H95.7413L97.8853 49.987C97.8426 50.6483 97.7893 51.4377 97.7253 52.355C97.6613 53.251 97.6079 54.147 97.5653 55.043C97.5439 55.939 97.5333 56.7283 97.5333 57.411V60.099H99.5173L100.893 62.339L100.637 62.723H97.5333C97.5333 63.5337 97.5013 64.1843 97.4373 64.675C97.3946 65.1657 97.3733 65.5603 97.3733 65.859C97.3733 66.0723 97.4799 66.2643 97.6933 66.435C97.9279 66.5843 98.2799 66.787 98.7493 67.043L98.3333 67.971C96.9253 67.4803 95.8906 67.043 95.2292 66.659C94.5893 66.2537 94.2693 65.923 94.2693 65.667C94.2693 65.3683 94.3013 65.0377 94.3653 64.675C94.4506 64.3123 94.5039 63.6617 94.5253 62.723H90.1413ZM94.5253 57.411C94.5253 56.5363 94.5359 55.651 94.5573 54.755C94.5999 53.8377 94.6426 52.995 94.6853 52.227C94.7279 51.459 94.7599 50.8297 94.7812 50.339C94.3973 51.171 93.9599 52.0777 93.4693 53.059C92.9999 54.019 92.5413 54.9683 92.0933 55.907C91.6453 56.8243 91.2506 57.6563 90.9093 58.403C90.5679 59.1497 90.3333 59.715 90.2053 60.099H94.5253V57.411ZM107.834 67.619C106.789 67.619 105.882 67.395 105.114 66.947C104.346 66.499 103.663 65.9017 103.066 65.155C102.469 64.387 101.903 63.5123 101.37 62.531L102.458 61.859C103.013 62.7763 103.567 63.491 104.122 64.003C104.698 64.515 105.349 64.771 106.074 64.771C106.842 64.771 107.514 64.515 108.09 64.003C108.687 63.4697 108.986 62.563 108.986 61.283V60.323C108.495 60.4723 107.877 60.547 107.13 60.547C106.789 60.547 106.309 60.419 105.69 60.163C105.093 59.8857 104.485 59.5337 103.866 59.107C103.247 58.6803 102.714 58.2323 102.266 57.763C101.839 57.2937 101.626 56.8563 101.626 56.451C101.626 55.6403 101.637 54.8723 101.658 54.147C101.679 53.4217 101.69 52.6643 101.69 51.875C101.69 50.1257 102.149 48.9097 103.066 48.227C103.983 47.5443 105.167 47.203 106.618 47.203C107.13 47.203 107.706 47.3843 108.346 47.747C108.986 48.0883 109.605 48.5363 110.202 49.091C110.821 49.6243 111.322 50.1897 111.706 50.787C112.111 51.3843 112.314 51.9283 112.314 52.419C112.314 53.1443 112.282 54.3177 112.218 55.939C112.175 57.5603 112.154 59.5443 112.154 61.891C112.154 63.4057 111.962 64.579 111.578 65.411C111.194 66.243 110.671 66.819 110.01 67.139C109.37 67.459 108.645 67.619 107.834 67.619ZM104.858 56.579C104.858 57.2403 105.189 57.571 105.85 57.571C106.277 57.571 106.767 57.507 107.322 57.379C107.877 57.251 108.431 57.059 108.986 56.803V54.627C108.986 53.8803 108.997 53.219 109.018 52.643C109.061 52.0457 109.082 51.5123 109.082 51.043C109.082 50.339 108.719 49.987 107.994 49.987C106.949 49.987 106.17 50.2323 105.658 50.723C105.167 51.1923 104.922 51.9603 104.922 53.027C104.922 53.6883 104.911 54.2857 104.89 54.819C104.869 55.331 104.858 55.9177 104.858 56.579Z" fill="#191919"/>
</svg>
