<svg width="324" height="322" viewBox="0 0 324 322" fill="none" xmlns="http://www.w3.org/2000/svg">
<ellipse cx="162" cy="161" rx="162" ry="161" fill="#191919"/>
<path d="M64.41 194.17C62.9933 193.66 61.4633 193.122 59.82 192.555C58.2333 191.932 56.8733 191.337 55.74 190.77C54.6067 190.203 54.04 189.807 54.04 189.58C54.04 189.353 54.2383 188.39 54.635 186.69C55.0883 184.933 55.655 182.723 56.335 180.06C57.0717 177.34 57.8367 174.393 58.63 171.22C59.48 168.047 60.33 164.902 61.18 161.785C62.03 158.612 62.8233 155.722 63.56 153.115C64.2967 150.452 64.8917 148.327 65.345 146.74H60.925L57.1 141.045L57.61 139.685H75.12L80.05 146.825C80.73 149.602 81.4383 152.747 82.175 156.26C82.9117 159.717 83.6483 163.258 84.385 166.885C85.1217 170.455 85.8017 173.77 86.425 176.83C87.0483 179.89 87.5583 182.44 87.955 184.48C88.3517 186.52 88.5783 187.682 88.635 187.965C88.7483 188.702 89.06 189.268 89.57 189.665C90.08 190.062 90.9867 190.6 92.29 191.28L91.27 194C89.57 193.433 87.87 192.782 86.17 192.045C84.5267 191.308 83.1667 190.6 82.09 189.92C81.0133 189.24 80.4467 188.758 80.39 188.475C80.22 186.662 80.0217 184.82 79.795 182.95C79.5683 181.023 79.3133 179.125 79.03 177.255C78.52 177.198 78.01 177.17 77.5 177.17C75.46 177.17 73.335 177.397 71.125 177.85C68.915 178.303 66.9033 179.125 65.09 180.315C64.6933 181.902 64.2683 183.517 63.815 185.16C63.4183 186.803 63.0217 188.447 62.625 190.09L65.43 191.45L64.41 194.17ZM71.635 170.285C73.9017 170.285 76.1117 170.908 78.265 172.155C77.585 167.622 76.82 163.23 75.97 158.98C75.1767 154.673 74.4683 150.848 73.845 147.505C73.0517 150.395 72.1167 153.795 71.04 157.705C70.02 161.615 68.8867 165.95 67.64 170.71C69 170.427 70.3317 170.285 71.635 170.285ZM114.47 193.235C112.6 193.235 110.843 192.98 109.2 192.47C107.613 191.96 106.225 191.365 105.035 190.685V197.315C105.035 199.355 104.95 201.14 104.78 202.67C104.61 204.257 104.525 205.447 104.525 206.24C104.525 206.807 104.723 207.232 105.12 207.515C105.573 207.855 106.65 208.478 108.35 209.385L107.33 211.68C103.703 210.32 100.898 209.073 98.9147 207.94C96.988 206.863 96.0247 205.872 96.0247 204.965C96.0247 204.172 96.1097 202.925 96.2797 201.225C96.5064 199.582 96.6197 197.967 96.6197 196.38V167.99C96.6197 166.913 96.648 165.497 96.7047 163.74C96.818 161.983 97.0164 160.482 97.2997 159.235H94.1547L89.7347 153.37L90.3297 152.01H98.3197C98.5464 152.01 99.028 152.407 99.7647 153.2C100.501 153.937 101.266 154.787 102.06 155.75C102.91 154.447 104.128 153.398 105.715 152.605C107.358 151.812 109.115 151.415 110.985 151.415H112.6C113.846 151.415 115.206 151.925 116.68 152.945C118.153 153.908 119.541 155.127 120.845 156.6C122.148 158.017 123.225 159.433 124.075 160.85C124.925 162.267 125.35 163.428 125.35 164.335C125.35 165.922 125.321 168.16 125.265 171.05C125.208 173.883 125.18 177.255 125.18 181.165C125.18 184.848 124.216 187.795 122.29 190.005C120.363 192.158 117.756 193.235 114.47 193.235ZM114.64 159.32C111.806 159.32 109.54 159.745 107.84 160.595C106.14 161.388 105.205 163.032 105.035 165.525C105.035 166.148 105.035 166.687 105.035 167.14V185.84C106.055 186.067 107.131 186.18 108.265 186.18C111.325 186.18 113.506 185.472 114.81 184.055C116.113 182.638 116.765 180.655 116.765 178.105C116.765 176.292 116.793 174.393 116.85 172.41C116.906 170.427 116.935 168.557 116.935 166.8C116.991 165.043 117.02 163.598 117.02 162.465C117.02 161.672 116.906 160.963 116.68 160.34C116.453 159.66 115.773 159.32 114.64 159.32ZM149.526 193.405C148.166 193.405 146.495 193.065 144.511 192.385C142.528 191.648 140.545 190.713 138.561 189.58C136.635 188.39 135.02 187.115 133.716 185.755C132.413 184.338 131.761 182.95 131.761 181.59C131.761 180.23 131.846 177.878 132.016 174.535C132.243 171.192 132.356 167.197 132.356 162.55C132.356 155.183 136.38 151.5 144.426 151.5C145.673 151.5 147.118 151.897 148.761 152.69C150.405 153.427 151.991 154.418 153.521 155.665C155.051 156.855 156.326 158.102 157.346 159.405C158.366 160.708 158.876 161.927 158.876 163.06V170.03C158.876 174.62 156.326 176.915 151.226 176.915C149.64 176.915 147.826 176.83 145.786 176.66C143.746 176.433 141.933 176.178 140.346 175.895C140.29 177.765 140.233 179.465 140.176 180.995C140.176 182.468 140.176 183.318 140.176 183.545C140.176 184.452 140.403 185.103 140.856 185.5C141.31 185.897 142.131 186.095 143.321 186.095C145.078 186.095 146.976 185.84 149.016 185.33C151.113 184.763 152.983 183.942 154.626 182.865H155.901L160.491 189.835C159.415 190.855 157.8 191.705 155.646 192.385C153.55 193.065 151.51 193.405 149.526 193.405ZM140.601 165.27C140.601 165.723 140.573 166.403 140.516 167.31C140.516 168.217 140.516 169.237 140.516 170.37C142.16 170.54 144.058 170.625 146.211 170.625C147.855 170.625 148.988 170.228 149.611 169.435C150.291 168.585 150.631 167.31 150.631 165.61V161.02C150.631 160.397 150.461 159.858 150.121 159.405C149.781 158.952 149.045 158.725 147.911 158.725C145.645 158.725 143.86 159.207 142.556 160.17C141.253 161.077 140.601 162.777 140.601 165.27ZM173.968 194.51C170.342 193.207 167.678 192.045 165.978 191.025C164.335 189.948 163.513 189.098 163.513 188.475C163.513 187.965 164.052 186.832 165.128 185.075C166.205 183.318 167.593 181.278 169.293 178.955C171.05 176.575 172.92 174.223 174.903 171.9C172.127 169.973 170.058 168.103 168.698 166.29C167.338 164.42 166.658 162.522 166.658 160.595C166.658 160.198 166.715 159.745 166.828 159.235H165.383L161.473 153.37L162.068 152.01H172.353L176.348 158.13V159.235C174.932 160.028 174.223 161.417 174.223 163.4C174.223 165.667 175.158 167.678 177.028 169.435C178.842 167.395 180.485 165.553 181.958 163.91C183.432 162.267 184.933 160.708 186.463 159.235H184.423L180.258 153.37L180.853 152.01H190.543L195.473 158.895C193.887 160.992 192.187 163.287 190.373 165.78C188.617 168.217 186.322 170.993 183.488 174.11C186.435 176.32 188.787 178.615 190.543 180.995C192.3 183.318 193.178 186.01 193.178 189.07C193.178 189.297 193.178 189.552 193.178 189.835C193.178 190.118 193.15 190.43 193.093 190.77L196.238 192.3L195.303 194.765C191.677 193.405 188.957 192.357 187.143 191.62C185.387 190.883 184.508 190.317 184.508 189.92V188.135C184.508 186.038 184.282 183.97 183.828 181.93C183.375 179.89 182.553 178.105 181.363 176.575C179.72 178.502 178.19 180.428 176.773 182.355C175.357 184.225 174.195 185.868 173.288 187.285C172.438 188.645 172.013 189.523 172.013 189.92C172.013 190.317 172.183 190.628 172.523 190.855C172.92 191.082 173.742 191.478 174.988 192.045L173.968 194.51ZM206.438 180.315C206.211 180.315 205.644 180.003 204.738 179.38C203.888 178.7 202.953 177.907 201.933 177C200.913 176.093 200.006 175.215 199.213 174.365C198.476 173.458 198.108 172.778 198.108 172.325C198.108 171.928 198.504 170.823 199.298 169.01C200.091 167.197 201.139 164.987 202.443 162.38C203.746 159.717 205.134 156.968 206.608 154.135C208.138 151.245 209.611 148.525 211.028 145.975C212.501 143.425 213.776 141.328 214.853 139.685H221.313L227.008 146.485C226.894 148.242 226.753 150.338 226.583 152.775C226.413 155.155 226.271 157.535 226.158 159.915C226.101 162.295 226.073 164.392 226.073 166.205V173.345H231.343L234.998 179.295L234.318 180.315H226.073C226.073 182.468 225.988 184.197 225.818 185.5C225.704 186.803 225.648 187.852 225.648 188.645C225.648 189.212 225.931 189.722 226.498 190.175C227.121 190.572 228.056 191.11 229.303 191.79L228.198 194.255C224.458 192.952 221.709 191.79 219.953 190.77C218.253 189.693 217.403 188.815 217.403 188.135C217.403 187.342 217.488 186.463 217.658 185.5C217.884 184.537 218.026 182.808 218.083 180.315H206.438ZM218.083 166.205C218.083 163.882 218.111 161.53 218.168 159.15C218.281 156.713 218.394 154.475 218.508 152.435C218.621 150.395 218.706 148.723 218.763 147.42C217.743 149.63 216.581 152.038 215.278 154.645C214.031 157.195 212.813 159.717 211.623 162.21C210.433 164.647 209.384 166.857 208.478 168.84C207.571 170.823 206.948 172.325 206.608 173.345H218.083V166.205ZM253.434 193.32C250.657 193.32 248.249 192.725 246.209 191.535C244.169 190.345 242.356 188.758 240.769 186.775C239.182 184.735 237.681 182.412 236.264 179.805L239.154 178.02C240.627 180.457 242.101 182.355 243.574 183.715C245.104 185.075 246.832 185.755 248.759 185.755C250.799 185.755 252.584 185.075 254.114 183.715C255.701 182.298 256.494 179.89 256.494 176.49V173.94C255.191 174.337 253.547 174.535 251.564 174.535C250.657 174.535 249.382 174.195 247.739 173.515C246.152 172.778 244.537 171.843 242.894 170.71C241.251 169.577 239.834 168.387 238.644 167.14C237.511 165.893 236.944 164.732 236.944 163.655C236.944 161.502 236.972 159.462 237.029 157.535C237.086 155.608 237.114 153.597 237.114 151.5C237.114 146.853 238.332 143.623 240.769 141.81C243.206 139.997 246.351 139.09 250.204 139.09C251.564 139.09 253.094 139.572 254.794 140.535C256.494 141.442 258.137 142.632 259.724 144.105C261.367 145.522 262.699 147.023 263.719 148.61C264.796 150.197 265.334 151.642 265.334 152.945C265.334 154.872 265.249 157.988 265.079 162.295C264.966 166.602 264.909 171.872 264.909 178.105C264.909 182.128 264.399 185.245 263.379 187.455C262.359 189.665 260.971 191.195 259.214 192.045C257.514 192.895 255.587 193.32 253.434 193.32ZM245.529 163.995C245.529 165.752 246.407 166.63 248.164 166.63C249.297 166.63 250.601 166.46 252.074 166.12C253.547 165.78 255.021 165.27 256.494 164.59V158.81C256.494 156.827 256.522 155.07 256.579 153.54C256.692 151.953 256.749 150.537 256.749 149.29C256.749 147.42 255.786 146.485 253.859 146.485C251.082 146.485 249.014 147.137 247.654 148.44C246.351 149.687 245.699 151.727 245.699 154.56C245.699 156.317 245.671 157.903 245.614 159.32C245.557 160.68 245.529 162.238 245.529 163.995Z" fill="white"/>
</svg>
